<svg class="css-1m7sfyz" fill="#FFF" viewBox="0 0 113 26" xmlns="http://www.w3.org/2000/svg"><path fill-rule="evenodd" clip-rule="evenodd" d="M42.3381 21.5637C43.5221 22.2357 44.9221 22.5717 46.5381 22.5717C48.1381 22.5717 49.5221 22.2357 50.6901 21.5637C51.8741 20.8757 52.7781 19.8997 53.4021 18.6357C54.0421 17.3717 54.3621 15.8677 54.3621 14.1237C54.3621 12.3797 54.0421 10.8757 53.4021 9.61174C52.7781 8.33174 51.8741 7.34774 50.6901 6.65974C49.5221 5.97174 48.1381 5.62774 46.5381 5.62774C44.9221 5.62774 43.5221 5.97174 42.3381 6.65974C41.1701 7.34774 40.2661 8.33174 39.6261 9.61174C39.0021 10.8757 38.6901 12.3797 38.6901 14.1237C38.6901 15.8677 39.0021 17.3717 39.6261 18.6357C40.2661 19.8997 41.1701 20.8757 42.3381 21.5637ZM49.2501 19.5717C48.4981 20.0677 47.5941 20.3157 46.5381 20.3157C45.4661 20.3157 44.5461 20.0677 43.7781 19.5717C43.0261 19.0597 42.4421 18.3477 42.0261 17.4357C41.6261 16.5077 41.4261 15.4037 41.4261 14.1237C41.4261 12.8277 41.6261 11.7157 42.0261 10.7877C42.4421 9.85974 43.0261 9.14774 43.7781 8.65174C44.5461 8.13974 45.4661 7.88374 46.5381 7.88374C47.5941 7.88374 48.4981 8.13974 49.2501 8.65174C50.0181 9.14774 50.6021 9.85974 51.0021 10.7877C51.4181 11.7157 51.6261 12.8277 51.6261 14.1237C51.6261 15.4037 51.4181 16.5077 51.0021 17.4357C50.6021 18.3477 50.0181 19.0597 49.2501 19.5717Z"></path><path fill-rule="evenodd" clip-rule="evenodd" d="M9.03908 6.46275C10.2297 1.85537 14.9299 -0.914476 19.5372 0.276126C24.1446 1.46673 26.9145 6.16692 25.7239 10.7743C24.7069 14.7097 21.1294 17.3045 17.2363 17.2357C17.2525 18.1924 17.1083 19.168 16.7859 20.1267C15.2694 24.6373 10.3834 27.0645 5.87281 25.5479C1.36221 24.0314 -1.06495 19.1454 0.451609 14.6348C1.67838 10.9861 5.10993 8.70069 8.76408 8.76325C8.75177 8.00503 8.84014 7.23259 9.03908 6.46275ZM8.95478 10.4258C5.9217 10.2777 3.03599 12.1418 2.02044 15.1623C1.32794 17.222 1.65325 19.3785 2.72502 21.0857C3.85862 17.359 6.08446 14.242 9.832 12.7717C9.42947 12.0403 9.13227 11.2502 8.95478 10.4258ZM10.7982 14.1787C6.8307 15.5589 5.13165 18.8613 3.99763 22.5894C4.67656 23.1923 5.48537 23.6715 6.40028 23.9791C10.0444 25.2044 13.9919 23.2434 15.2171 19.5993C15.5023 18.751 15.6149 17.8863 15.5738 17.0433C13.7184 16.6438 12.0224 15.6306 10.7982 14.1787ZM19.1231 1.87862C17.0193 1.33497 14.8916 1.8134 13.2653 3.00426C18.265 4.14237 21.9912 7.49481 23.0585 12.6506C23.5367 11.9775 23.9025 11.2073 24.1214 10.3602C25.0833 6.63785 22.8455 2.84052 19.1231 1.87862ZM10.6416 6.87685C10.8831 5.94227 11.3033 5.10126 11.8563 4.38099C17.2011 5.59766 20.5069 8.48986 21.6689 14.1033C20.0225 15.3884 17.8183 15.9214 15.6398 15.3584C11.9175 14.3965 9.67967 10.5992 10.6416 6.87685Z"></path><path d="M57.2176 4.97974V22.2597H59.7856V15.8683L65.0896 22.2597H68.2816L62.4179 15.158L67.9456 9.46774H64.8736L59.7856 14.8876V4.97974H57.2176Z"></path><path fill-rule="evenodd" clip-rule="evenodd" d="M72.2303 13.6437H69.6623C69.8063 12.6997 70.1103 11.8917 70.5743 11.2197C71.0383 10.5477 71.6623 10.0357 72.4463 9.68374C73.2303 9.31574 74.1503 9.13174 75.2063 9.13174C76.3583 9.13174 77.3183 9.34774 78.0863 9.77974C78.8703 10.1957 79.4543 10.7797 79.8383 11.5317C80.2223 12.2837 80.4143 13.1557 80.4143 14.1477V19.1397C80.4143 19.9077 80.4463 20.5317 80.5103 21.0117C80.5903 21.4917 80.7023 21.9077 80.8463 22.2597H78.1583C78.0143 21.9397 77.9263 21.5397 77.8943 21.0597C77.8793 20.8339 77.8678 20.6064 77.8598 20.377C77.6342 20.6987 77.3817 20.9822 77.1023 21.2277C76.5903 21.6917 76.0303 22.0357 75.4223 22.2597C74.8143 22.4677 74.2063 22.5717 73.5983 22.5717C72.7343 22.5717 71.9743 22.4357 71.3183 22.1637C70.6623 21.8917 70.1503 21.4837 69.7823 20.9397C69.4143 20.3957 69.2303 19.7157 69.2303 18.8997C69.2303 18.0197 69.4703 17.2677 69.9503 16.6437C70.4303 16.0197 71.1503 15.5397 72.1103 15.2037C73.0063 14.8997 73.9343 14.6997 74.8943 14.6037C75.761 14.5171 76.745 14.4695 77.8463 14.4611V14.1717C77.8463 13.2437 77.6143 12.5317 77.1503 12.0357C76.7023 11.5397 75.9903 11.2917 75.0143 11.2917C74.1823 11.2917 73.5343 11.5077 73.0703 11.9397C72.6223 12.3557 72.3423 12.9237 72.2303 13.6437ZM77.8463 16.2134V16.7877C77.8463 17.4597 77.6783 18.0837 77.3423 18.6597C77.0223 19.2357 76.5743 19.6997 75.9983 20.0517C75.4383 20.3877 74.7983 20.5557 74.0783 20.5557C73.4063 20.5557 72.8623 20.4037 72.4463 20.0997C72.0303 19.7797 71.8223 19.3477 71.8223 18.8037C71.8223 18.4197 71.9103 18.0757 72.0863 17.7717C72.2623 17.4517 72.5823 17.1797 73.0463 16.9557C73.5103 16.7157 74.1583 16.5317 74.9903 16.4037C75.7449 16.2876 76.6969 16.2242 77.8463 16.2134Z"></path><path d="M86.2264 13.9077C85.9384 13.6517 85.7944 13.2917 85.7944 12.8277C85.7944 12.3477 85.9864 11.9557 86.3704 11.6517C86.7704 11.3317 87.3224 11.1717 88.0265 11.1717C88.8424 11.1717 89.4984 11.3637 89.9944 11.7477C90.4904 12.1157 90.8104 12.7477 90.9544 13.6437H93.5224C93.3944 12.5877 93.0825 11.7317 92.5864 11.0757C92.0904 10.4037 91.4664 9.91574 90.7144 9.61174C89.9624 9.29174 89.1064 9.13174 88.1464 9.13174C87.0584 9.13174 86.1544 9.31574 85.4344 9.68374C84.7304 10.0357 84.2024 10.5077 83.8504 11.0997C83.5144 11.6757 83.3464 12.2997 83.3464 12.9717C83.3464 13.7237 83.4904 14.3317 83.7785 14.7957C84.0664 15.2437 84.4504 15.5957 84.9304 15.8517C85.4104 16.1077 85.9305 16.3077 86.4904 16.4517C87.0664 16.5797 87.6424 16.6917 88.2185 16.7877C88.7944 16.8837 89.3224 16.9957 89.8025 17.1237C90.2984 17.2357 90.6904 17.4197 90.9784 17.6757C91.2664 17.9317 91.4104 18.2837 91.4104 18.7317C91.4104 19.2597 91.1864 19.6997 90.7384 20.0517C90.2904 20.4037 89.6344 20.5797 88.7704 20.5797C87.8744 20.5797 87.1384 20.3637 86.5624 19.9317C85.9865 19.4997 85.6344 18.8837 85.5064 18.0837H82.9384C83.1784 19.6197 83.8104 20.7557 84.8344 21.4917C85.8744 22.2117 87.1624 22.5717 88.6984 22.5717C89.7384 22.5717 90.6505 22.4117 91.4344 22.0917C92.2345 21.7557 92.8584 21.2837 93.3064 20.6757C93.7544 20.0677 93.9784 19.3637 93.9784 18.5637C93.9784 17.8117 93.8264 17.2117 93.5224 16.7637C93.2344 16.3157 92.8424 15.9717 92.3464 15.7317C91.8664 15.4757 91.3384 15.2837 90.7624 15.1557C90.1864 15.0117 89.6024 14.8997 89.0104 14.8197C88.4344 14.7237 87.8984 14.6117 87.4024 14.4837C86.9064 14.3397 86.5145 14.1477 86.2264 13.9077Z"></path><path d="M96.4369 22.2597V4.97974H99.0049V11.1713C99.3962 10.5637 99.8762 10.0918 100.445 9.75574C101.149 9.33974 101.957 9.13174 102.869 9.13174C103.765 9.13174 104.533 9.30774 105.173 9.65974C105.813 9.99574 106.309 10.5077 106.661 11.1957C107.013 11.8677 107.189 12.7077 107.189 13.7157V22.2597H104.645V14.2437C104.645 13.6197 104.549 13.0917 104.357 12.6597C104.165 12.2117 103.885 11.8677 103.517 11.6277C103.149 11.3877 102.669 11.2677 102.077 11.2677C101.597 11.2677 101.165 11.3717 100.781 11.5797C100.397 11.7717 100.069 12.0277 99.7969 12.3477C99.5409 12.6677 99.3409 13.0357 99.1969 13.4517C99.0689 13.8677 99.0049 14.2997 99.0049 14.7477V22.2597H96.4369Z"></path><path d="M110.432 9.46774V22.2597H113V9.46774H110.432Z"></path><path d="M110.432 4.97974V7.88374H113V4.97974H110.432Z"></path></svg>