<svg width="41" height="40" viewBox="0 0 41 40" fill="none" xmlns="http://www.w3.org/2000/svg">
<rect x="0.525391" width="40" height="40" rx="8" fill="#152E5D"/>
<path d="M12.08 24H9.448V21.522H12.08V24ZM17.4693 24.14C14.7673 24.14 13.2553 22.236 13.2553 19.31C13.2553 16.398 14.7673 14.48 17.4693 14.48C20.1573 14.48 21.6693 16.398 21.6693 19.31C21.6693 22.236 20.1573 24.14 17.4693 24.14ZM17.4693 22.11C18.8973 22.11 19.4293 21.536 19.4293 19.31C19.4293 17.084 18.8973 16.51 17.4693 16.51C16.0273 16.51 15.4953 17.084 15.4953 19.31C15.4953 21.536 16.0273 22.11 17.4693 22.11ZM27.6002 24.14C24.8982 24.14 23.3862 22.236 23.3862 19.31C23.3862 16.398 24.8982 14.48 27.6002 14.48C30.2882 14.48 31.8002 16.398 31.8002 19.31C31.8002 22.236 30.2882 24.14 27.6002 24.14ZM27.6002 22.11C29.0282 22.11 29.5602 21.536 29.5602 19.31C29.5602 17.084 29.0282 16.51 27.6002 16.51C26.1582 16.51 25.6262 17.084 25.6262 19.31C25.6262 21.536 26.1582 22.11 27.6002 22.11Z" fill="white"/>
</svg>
