<svg width="41" height="40" viewBox="0 0 41 40" fill="none" xmlns="http://www.w3.org/2000/svg">
<rect x="0.525391" width="40" height="40" rx="8" fill="#152E5D"/>
<path fill-rule="evenodd" clip-rule="evenodd" d="M13.5 15.5C12.6716 15.5 12 16.1716 12 17V26C12 26.8284 12.6716 27.5 13.5 27.5H28.5C29.3284 27.5 30 26.8284 30 26V17C30 16.1716 29.3284 15.5 28.5 15.5H13.5ZM10.5 17C10.5 15.3431 11.8431 14 13.5 14H28.5C30.1569 14 31.5 15.3431 31.5 17V26C31.5 27.6569 30.1569 29 28.5 29H13.5C11.8431 29 10.5 27.6569 10.5 26V17Z" fill="white"/>
<path fill-rule="evenodd" clip-rule="evenodd" d="M25.3672 10.304C25.812 10.2204 26.2698 10.2354 26.7083 10.348C27.1493 10.4612 27.5598 10.6704 27.9106 10.9606C28.2614 11.2508 28.5439 11.6148 28.7378 12.0267C28.9317 12.4386 29.0324 12.8882 29.0325 13.3435V14.75H27.5325V13.344C27.5325 13.3439 27.5325 13.3441 27.5325 13.344C27.5324 13.1095 27.4806 12.8778 27.3807 12.6656C27.2808 12.4534 27.1353 12.2659 26.9546 12.1164C26.7738 11.9669 26.5624 11.8592 26.3352 11.8008C26.108 11.7425 25.8708 11.735 25.6404 11.7789L25.6262 11.7815L13.289 13.8872C12.927 13.9577 12.6006 14.1516 12.3655 14.4359C12.129 14.7219 11.9997 15.0815 12 15.4526L12 17.75H10.5V15.4534C10.5 15.4533 10.5 15.4534 10.5 15.4534C10.4996 14.7331 10.7505 14.0351 11.2095 13.4801C11.6685 12.9249 12.3069 12.5473 13.0146 12.4125L13.0288 12.4099L25.3672 10.304Z" fill="white"/>
<path d="M26.25 23C25.9533 23 25.6633 22.912 25.4166 22.7472C25.17 22.5824 24.9777 22.3481 24.8642 22.074C24.7506 21.7999 24.7209 21.4983 24.7788 21.2074C24.8367 20.9164 24.9796 20.6491 25.1893 20.4393C25.3991 20.2296 25.6664 20.0867 25.9574 20.0288C26.2483 19.9709 26.5499 20.0006 26.824 20.1142C27.0981 20.2277 27.3324 20.42 27.4972 20.6666C27.662 20.9133 27.75 21.2033 27.75 21.5C27.75 21.8978 27.592 22.2794 27.3107 22.5607C27.0294 22.842 26.6478 23 26.25 23Z" fill="white"/>
</svg>
