<svg width="40" height="40" viewBox="0 0 40 40" fill="none" xmlns="http://www.w3.org/2000/svg">
<rect width="40" height="40" rx="8" fill="#152E5D"/>
<path d="M28.9533 18.8281C29.6775 18.8281 29.9798 17.8977 29.3916 17.4687L20.4408 10.9578C20.3129 10.8642 20.1586 10.8137 20.0001 10.8137C19.8417 10.8137 19.6873 10.8642 19.5595 10.9578L10.6087 17.4687C10.0205 17.8953 10.3228 18.8281 11.0494 18.8281H12.5001V27.5938H10.8126C10.7095 27.5938 10.6251 27.6781 10.6251 27.7812V29C10.6251 29.1031 10.7095 29.1875 10.8126 29.1875H29.1876C29.2908 29.1875 29.3751 29.1031 29.3751 29V27.7812C29.3751 27.6781 29.2908 27.5938 29.1876 27.5938H27.5001V18.8281H28.9533ZM20.0001 12.6102L26.354 17.232H13.6462L20.0001 12.6102ZM14.1876 18.8281H16.9298V27.5938H14.1876V18.8281ZM18.6173 18.8281H21.3595V27.5938H18.6173V18.8281ZM25.8126 27.5938H23.047V18.8281H25.8126V27.5938Z" fill="white"/>
</svg>
