<svg width="41" height="40" viewBox="0 0 41 40" fill="none" xmlns="http://www.w3.org/2000/svg">
<rect x="0.762695" width="40" height="40" rx="8" fill="#152E5D"/>
<path fill-rule="evenodd" clip-rule="evenodd" d="M15 12.5C14.1716 12.5 13.5 13.1716 13.5 14V26C13.5 26.8284 14.1716 27.5 15 27.5H27C27.8284 27.5 28.5 26.8284 28.5 26V14C28.5 13.1716 27.8284 12.5 27 12.5H15ZM12 14C12 12.3431 13.3431 11 15 11H27C28.6569 11 30 12.3431 30 14V26C30 27.6569 28.6569 29 27 29H15C13.3431 29 12 27.6569 12 26V14Z" fill="white"/>
<path fill-rule="evenodd" clip-rule="evenodd" d="M15 15.5C15 14.6716 15.6716 14 16.5 14H25.5C26.3284 14 27 14.6716 27 15.5V24.5C27 25.3284 26.3284 26 25.5 26H16.5C15.6716 26 15 25.3284 15 24.5V15.5ZM25.5 15.5H16.5V24.5H25.5V15.5Z" fill="white"/>
<path fill-rule="evenodd" clip-rule="evenodd" d="M17.25 9.5C17.6642 9.5 18 9.83579 18 10.25V11.75C18 12.1642 17.6642 12.5 17.25 12.5C16.8358 12.5 16.5 12.1642 16.5 11.75V10.25C16.5 9.83579 16.8358 9.5 17.25 9.5ZM21 9.5C21.4142 9.5 21.75 9.83579 21.75 10.25V11.75C21.75 12.1642 21.4142 12.5 21 12.5C20.5858 12.5 20.25 12.1642 20.25 11.75V10.25C20.25 9.83579 20.5858 9.5 21 9.5ZM24.75 9.5C25.1642 9.5 25.5 9.83579 25.5 10.25V11.75C25.5 12.1642 25.1642 12.5 24.75 12.5C24.3358 12.5 24 12.1642 24 11.75V10.25C24 9.83579 24.3358 9.5 24.75 9.5ZM10.5 16.25C10.5 15.8358 10.8358 15.5 11.25 15.5H12.75C13.1642 15.5 13.5 15.8358 13.5 16.25C13.5 16.6642 13.1642 17 12.75 17H11.25C10.8358 17 10.5 16.6642 10.5 16.25ZM28.5 16.25C28.5 15.8358 28.8358 15.5 29.25 15.5H30.75C31.1642 15.5 31.5 15.8358 31.5 16.25C31.5 16.6642 31.1642 17 30.75 17H29.25C28.8358 17 28.5 16.6642 28.5 16.25ZM10.5 20C10.5 19.5858 10.8358 19.25 11.25 19.25H12.75C13.1642 19.25 13.5 19.5858 13.5 20C13.5 20.4142 13.1642 20.75 12.75 20.75H11.25C10.8358 20.75 10.5 20.4142 10.5 20ZM28.5 20C28.5 19.5858 28.8358 19.25 29.25 19.25H30.75C31.1642 19.25 31.5 19.5858 31.5 20C31.5 20.4142 31.1642 20.75 30.75 20.75H29.25C28.8358 20.75 28.5 20.4142 28.5 20ZM10.5 23.75C10.5 23.3358 10.8358 23 11.25 23H12.75C13.1642 23 13.5 23.3358 13.5 23.75C13.5 24.1642 13.1642 24.5 12.75 24.5H11.25C10.8358 24.5 10.5 24.1642 10.5 23.75ZM28.5 23.75C28.5 23.3358 28.8358 23 29.25 23H30.75C31.1642 23 31.5 23.3358 31.5 23.75C31.5 24.1642 31.1642 24.5 30.75 24.5H29.25C28.8358 24.5 28.5 24.1642 28.5 23.75ZM17.25 27.5C17.6642 27.5 18 27.8358 18 28.25V29.75C18 30.1642 17.6642 30.5 17.25 30.5C16.8358 30.5 16.5 30.1642 16.5 29.75V28.25C16.5 27.8358 16.8358 27.5 17.25 27.5ZM21 27.5C21.4142 27.5 21.75 27.8358 21.75 28.25V29.75C21.75 30.1642 21.4142 30.5 21 30.5C20.5858 30.5 20.25 30.1642 20.25 29.75V28.25C20.25 27.8358 20.5858 27.5 21 27.5ZM24.75 27.5C25.1642 27.5 25.5 27.8358 25.5 28.25V29.75C25.5 30.1642 25.1642 30.5 24.75 30.5C24.3358 30.5 24 30.1642 24 29.75V28.25C24 27.8358 24.3358 27.5 24.75 27.5Z" fill="white"/>
</svg>
