<svg xmlns="http://www.w3.org/2000/svg" xmlns:xlink="http://www.w3.org/1999/xlink" width="800" zoomAndPan="magnify" viewBox="0 0 600 599.999999" height="800" preserveAspectRatio="xMidYMid meet" version="1.0"><defs><g/><clipPath id="401cc675d8"><path d="M 20.871094 20.949219 L 579.128906 20.949219 L 579.128906 579.207031 L 20.871094 579.207031 Z M 20.871094 20.949219 " clip-rule="nonzero"/></clipPath><clipPath id="4d474827a6"><path d="M 300 20.949219 C 145.839844 20.949219 20.871094 145.917969 20.871094 300.078125 C 20.871094 454.234375 145.839844 579.207031 300 579.207031 C 454.160156 579.207031 579.128906 454.234375 579.128906 300.078125 C 579.128906 145.917969 454.160156 20.949219 300 20.949219 Z M 300 20.949219 " clip-rule="nonzero"/></clipPath></defs><g clip-path="url(#401cc675d8)"><g clip-path="url(#4d474827a6)"><path fill="#000000" d="M 20.871094 20.949219 L 579.128906 20.949219 L 579.128906 579.207031 L 20.871094 579.207031 Z M 20.871094 20.949219 " fill-opacity="1" fill-rule="nonzero"/></g></g><g fill="#ff00ff" fill-opacity="1"><g transform="translate(17.087006, 479.599955)"><g><path d="M 196.957031 -344.671875 C 157.644531 -344.671875 117.933594 -322.433594 104.832031 -282.328125 C 102.449219 -274.386719 100.859375 -266.84375 100.859375 -259.296875 C 100.859375 -224.75 124.6875 -198.542969 147.320312 -170.746094 C 165.984375 -148.113281 183.453125 -129.449219 183.453125 -105.625 C 183.453125 -73.460938 155.261719 -54.003906 129.449219 -54.003906 C 100.859375 -54.402344 78.226562 -71.078125 78.625 -99.273438 C 79.019531 -101.257812 79.019531 -103.242188 79.019531 -104.832031 C 79.019531 -127.464844 63.929688 -137.789062 48.445312 -137.789062 C 32.5625 -137.789062 16.28125 -126.273438 16.28125 -104.035156 C 14.296875 -40.898438 69.886719 0 129.847656 0 C 193.382812 0 250.960938 -50.03125 250.960938 -111.183594 C 250.960938 -152.480469 223.558594 -184.25 199.339844 -211.25 L 194.574219 -216.414062 C 179.484375 -232.695312 167.570312 -250.5625 167.570312 -265.253906 C 167.570312 -282.726562 187.824219 -290.269531 196.957031 -289.875 C 209.265625 -289.078125 218 -280.34375 224.75 -266.84375 C 229.914062 -254.535156 240.238281 -248.972656 250.960938 -248.972656 C 265.253906 -248.972656 279.550781 -259.695312 279.550781 -277.960938 C 279.550781 -281.933594 279.152344 -285.507812 277.960938 -289.875 C 268.828125 -320.847656 237.457031 -344.671875 196.957031 -344.671875 Z M 196.957031 -344.671875 "/></g></g></g><g fill="#ff00ff" fill-opacity="1"><g transform="translate(287.104553, 479.599955)"><g><path d="M 279.152344 -336.730469 L 86.566406 -336.730469 C 63.929688 -335.9375 54.402344 -323.230469 54.402344 -310.523438 C 54.402344 -298.609375 63.136719 -287.09375 77.433594 -287.09375 L 138.980469 -287.09375 L 52.019531 -36.929688 C 50.429688 -32.957031 50.03125 -28.988281 50.03125 -25.8125 C 50.03125 -9.132812 64.726562 0 79.816406 0 C 93.316406 0 106.816406 -7.148438 111.980469 -22.238281 L 204.5 -287.09375 L 269.226562 -287.09375 C 291.460938 -287.09375 300.992188 -300.59375 300.992188 -313.300781 C 300.992188 -325.214844 292.652344 -336.730469 279.152344 -336.730469 Z M 279.152344 -336.730469 "/></g></g></g><g fill="#00ffff" fill-opacity="1"><g transform="translate(2.195405, 479.599955)"><g><path d="M 196.957031 -344.671875 C 157.644531 -344.671875 117.933594 -322.433594 104.832031 -282.328125 C 102.449219 -274.386719 100.859375 -266.84375 100.859375 -259.296875 C 100.859375 -224.75 124.6875 -198.542969 147.320312 -170.746094 C 165.984375 -148.113281 183.453125 -129.449219 183.453125 -105.625 C 183.453125 -73.460938 155.261719 -54.003906 129.449219 -54.003906 C 100.859375 -54.402344 78.226562 -71.078125 78.625 -99.273438 C 79.019531 -101.257812 79.019531 -103.242188 79.019531 -104.832031 C 79.019531 -127.464844 63.929688 -137.789062 48.445312 -137.789062 C 32.5625 -137.789062 16.28125 -126.273438 16.28125 -104.035156 C 14.296875 -40.898438 69.886719 0 129.847656 0 C 193.382812 0 250.960938 -50.03125 250.960938 -111.183594 C 250.960938 -152.480469 223.558594 -184.25 199.339844 -211.25 L 194.574219 -216.414062 C 179.484375 -232.695312 167.570312 -250.5625 167.570312 -265.253906 C 167.570312 -282.726562 187.824219 -290.269531 196.957031 -289.875 C 209.265625 -289.078125 218 -280.34375 224.75 -266.84375 C 229.914062 -254.535156 240.238281 -248.972656 250.960938 -248.972656 C 265.253906 -248.972656 279.550781 -259.695312 279.550781 -277.960938 C 279.550781 -281.933594 279.152344 -285.507812 277.960938 -289.875 C 268.828125 -320.847656 237.457031 -344.671875 196.957031 -344.671875 Z M 196.957031 -344.671875 "/></g></g></g><g fill="#00ffff" fill-opacity="1"><g transform="translate(272.212952, 479.599955)"><g><path d="M 279.152344 -336.730469 L 86.566406 -336.730469 C 63.929688 -335.9375 54.402344 -323.230469 54.402344 -310.523438 C 54.402344 -298.609375 63.136719 -287.09375 77.433594 -287.09375 L 138.980469 -287.09375 L 52.019531 -36.929688 C 50.429688 -32.957031 50.03125 -28.988281 50.03125 -25.8125 C 50.03125 -9.132812 64.726562 0 79.816406 0 C 93.316406 0 106.816406 -7.148438 111.980469 -22.238281 L 204.5 -287.09375 L 269.226562 -287.09375 C 291.460938 -287.09375 300.992188 -300.59375 300.992188 -313.300781 C 300.992188 -325.214844 292.652344 -336.730469 279.152344 -336.730469 Z M 279.152344 -336.730469 "/></g></g></g><g fill="#ffffff" fill-opacity="1"><g transform="translate(9.641206, 479.599955)"><g><path d="M 196.957031 -344.671875 C 157.644531 -344.671875 117.933594 -322.433594 104.832031 -282.328125 C 102.449219 -274.386719 100.859375 -266.84375 100.859375 -259.296875 C 100.859375 -224.75 124.6875 -198.542969 147.320312 -170.746094 C 165.984375 -148.113281 183.453125 -129.449219 183.453125 -105.625 C 183.453125 -73.460938 155.261719 -54.003906 129.449219 -54.003906 C 100.859375 -54.402344 78.226562 -71.078125 78.625 -99.273438 C 79.019531 -101.257812 79.019531 -103.242188 79.019531 -104.832031 C 79.019531 -127.464844 63.929688 -137.789062 48.445312 -137.789062 C 32.5625 -137.789062 16.28125 -126.273438 16.28125 -104.035156 C 14.296875 -40.898438 69.886719 0 129.847656 0 C 193.382812 0 250.960938 -50.03125 250.960938 -111.183594 C 250.960938 -152.480469 223.558594 -184.25 199.339844 -211.25 L 194.574219 -216.414062 C 179.484375 -232.695312 167.570312 -250.5625 167.570312 -265.253906 C 167.570312 -282.726562 187.824219 -290.269531 196.957031 -289.875 C 209.265625 -289.078125 218 -280.34375 224.75 -266.84375 C 229.914062 -254.535156 240.238281 -248.972656 250.960938 -248.972656 C 265.253906 -248.972656 279.550781 -259.695312 279.550781 -277.960938 C 279.550781 -281.933594 279.152344 -285.507812 277.960938 -289.875 C 268.828125 -320.847656 237.457031 -344.671875 196.957031 -344.671875 Z M 196.957031 -344.671875 "/></g></g></g><g fill="#ffffff" fill-opacity="1"><g transform="translate(279.658753, 479.599955)"><g><path d="M 279.152344 -336.730469 L 86.566406 -336.730469 C 63.929688 -335.9375 54.402344 -323.230469 54.402344 -310.523438 C 54.402344 -298.609375 63.136719 -287.09375 77.433594 -287.09375 L 138.980469 -287.09375 L 52.019531 -36.929688 C 50.429688 -32.957031 50.03125 -28.988281 50.03125 -25.8125 C 50.03125 -9.132812 64.726562 0 79.816406 0 C 93.316406 0 106.816406 -7.148438 111.980469 -22.238281 L 204.5 -287.09375 L 269.226562 -287.09375 C 291.460938 -287.09375 300.992188 -300.59375 300.992188 -313.300781 C 300.992188 -325.214844 292.652344 -336.730469 279.152344 -336.730469 Z M 279.152344 -336.730469 "/></g></g></g></svg>